Normalized EMG Linear Envelopes
nRows=118
nColumns=4

endheader
time	 med_gas_r	  soleus_r	 tib_ant_r	
3.07762	  0.067310	  0.049691	  0.014626	
3.14919	  0.065313	  0.049344	  0.014466	
3.22077	  0.065476	  0.047646	  0.015089	
3.29234	  0.069189	  0.046227	  0.016106	
3.36391	  0.072589	  0.045811	  0.016335	
3.43548	  0.072854	  0.045212	  0.015938	
3.50706	  0.070384	  0.043447	  0.015655	
3.57863	  0.065864	  0.042649	  0.015803	
3.6502	  0.061015	  0.043943	  0.016095	
3.72177	  0.057750	  0.046182	  0.015851	
3.79335	  0.057548	  0.047877	  0.015417	
3.86492	  0.059736	  0.049126	  0.015492	
3.93649	  0.062511	  0.050558	  0.015737	
4.00806	  0.064580	  0.051047	  0.016132	
4.07964	  0.066317	  0.049916	  0.016825	
4.15121	  0.068071	  0.048440	  0.017576	
4.22278	  0.070746	  0.047860	  0.017900	
4.29435	  0.073765	  0.047741	  0.017778	
4.36593	  0.074555	  0.048161	  0.017161	
4.4375	  0.073157	  0.049493	  0.016243	
4.50907	  0.070428	  0.050511	  0.015642	
4.58065	  0.067316	  0.050026	  0.015534	
4.65222	  0.065913	  0.047566	  0.015656	
4.72379	  0.066716	  0.044783	  0.015552	
4.79536	  0.066490	  0.043875	  0.015254	
4.86694	  0.065177	  0.044485	  0.014848	
4.93851	  0.065892	  0.045696	  0.014509	
5.01008	  0.069882	  0.048314	  0.014625	
5.08165	  0.074664	  0.052465	  0.015333	
5.15323	  0.075497	  0.054660	  0.016657	
5.2248	  0.071623	  0.052218	  0.019374	
5.29637	  0.067237	  0.047950	  0.024039	
5.36794	  0.063949	  0.043096	  0.030608	
5.43952	  0.063056	  0.041317	  0.038753	
5.51109	  0.071722	  0.050793	  0.050160	
5.58266	  0.101843	  0.081046	  0.061406	
5.65423	  0.170136	  0.143134	  0.070119	
5.72581	  0.293411	  0.240260	  0.078454	
5.79738	  0.462617	  0.352356	  0.091541	
5.86895	  0.628204	  0.446742	  0.107034	
5.94052	  0.735949	  0.515309	  0.121063	
6.0121	  0.764747	  0.556568	  0.129953	
6.08367	  0.727712	  0.575524	  0.129646	
6.15524	  0.681753	  0.591072	  0.126944	
6.22681	  0.686623	  0.603922	  0.127873	
6.29839	  0.744502	  0.623256	  0.136459	
6.36996	  0.792385	  0.636894	  0.146093	
6.44153	  0.793649	  0.609564	  0.146397	
6.5131	  0.743048	  0.555481	  0.135316	
6.58468	  0.690315	  0.501399	  0.119772	
6.65625	  0.666521	  0.475457	  0.109795	
6.72782	  0.670491	  0.488274	  0.109034	
6.7994	  0.693010	  0.528183	  0.114939	
6.87097	  0.719085	  0.569203	  0.124154	
6.94254	  0.755054	  0.598838	  0.133570	
7.01411	  0.776754	  0.610690	  0.136194	
7.08569	  0.773219	  0.600864	  0.130150	
7.15726	  0.764105	  0.588626	  0.123341	
7.22883	  0.754687	  0.577498	  0.120951	
7.3004	  0.753525	  0.566773	  0.124205	
7.37198	  0.766550	  0.567544	  0.131263	
7.44355	  0.770684	  0.577785	  0.134379	
7.51512	  0.761427	  0.581568	  0.131440	
7.58669	  0.732997	  0.566845	  0.123777	
7.65827	  0.703076	  0.543550	  0.115497	
7.72984	  0.680133	  0.531280	  0.110903	
7.80141	  0.648791	  0.525208	  0.111226	
7.87298	  0.605135	  0.525800	  0.111988	
7.94456	  0.576441	  0.542026	  0.110635	
8.01613	  0.583335	  0.550009	  0.108942	
8.0877	  0.626972	  0.551812	  0.106934	
8.15927	  0.691179	  0.570900	  0.108323	
8.23085	  0.747931	  0.595095	  0.114538	
8.30242	  0.755065	  0.608970	  0.119820	
8.37399	  0.717580	  0.610644	  0.120581	
8.44556	  0.672562	  0.607783	  0.121440	
8.51714	  0.625968	  0.603215	  0.122356	
8.58871	  0.586584	  0.580558	  0.119476	
8.66028	  0.575443	  0.536724	  0.114903	
8.73185	  0.601998	  0.495673	  0.109898	
8.80343	  0.642445	  0.500572	  0.104997	
8.875	  0.667700	  0.539101	  0.103681	
8.94657	  0.685075	  0.588088	  0.107340	
9.01815	  0.699449	  0.618600	  0.115001	
9.08972	  0.694060	  0.625092	  0.123319	
9.16129	  0.698988	  0.620508	  0.130308	
9.23286	  0.713260	  0.624470	  0.136010	
9.30444	  0.729396	  0.644753	  0.140258	
9.37601	  0.739259	  0.671142	  0.140510	
9.44758	  0.736309	  0.682585	  0.137010	
9.51915	  0.702523	  0.647547	  0.130165	
9.59073	  0.648250	  0.573478	  0.122172	
9.6623	  0.610273	  0.506077	  0.115522	
9.73387	  0.588187	  0.469356	  0.110054	
9.80544	  0.574343	  0.451115	  0.104388	
9.87702	  0.570132	  0.444918	  0.100678	
9.94859	  0.575664	  0.450640	  0.100748	
10.0202	  0.596429	  0.464828	  0.103888	
10.0917	  0.624278	  0.486026	  0.106318	
10.1633	  0.639996	  0.502451	  0.104912	
10.2349	  0.619996	  0.490543	  0.096835	
10.3065	  0.535038	  0.428846	  0.082163	
10.378	  0.390423	  0.321405	  0.063875	
10.4496	  0.239651	  0.202205	  0.048646	
10.5212	  0.137089	  0.116470	  0.043047	
10.5927	  0.093469	  0.075500	  0.047160	
10.6643	  0.092919	  0.069436	  0.058573	
10.7359	  0.110139	  0.079800	  0.071394	
10.8075	  0.119817	  0.089234	  0.079700	
10.879	  0.117619	  0.090291	  0.077083	
10.9506	  0.112269	  0.086398	  0.071127	
11.0222	  0.114332	  0.084572	  0.069255	
11.0937	  0.119974	  0.085007	  0.070289	
11.1653	  0.125929	  0.088284	  0.071374	
11.2369	  0.132860	  0.096894	  0.070507	
11.3085	  0.140904	  0.107347	  0.069452	
11.38	  0.143787	  0.113853	  0.073290	
11.4516	  0.141075	  0.116570	  0.080764	
